<svg width="16" height="16" viewBox="0 0 16 16" fill="none" xmlns="http://www.w3.org/2000/svg">
<path d="M12.8 5.20001C12.6754 5.07786 12.5078 5.00944 12.3333 5.00944C12.1588 5.00944 11.9913 5.07786 11.8667 5.20001L7.66666 9.39335L3.46666 5.19335C3.33836 5.08497 3.17389 5.02901 3.00611 5.03666C2.83834 5.0443 2.67964 5.11499 2.56172 5.23458C2.44381 5.35418 2.37539 5.51387 2.37012 5.68174C2.36486 5.8496 2.42314 6.01327 2.53333 6.14002L7.19999 10.8067C7.32461 10.9288 7.49216 10.9973 7.66666 10.9973C7.84116 10.9973 8.00871 10.9288 8.13333 10.8067L12.8 6.14002C12.8625 6.07804 12.9121 6.00431 12.9459 5.92307C12.9798 5.84183 12.9972 5.75469 12.9972 5.66668C12.9972 5.57867 12.9798 5.49154 12.9459 5.4103C12.9121 5.32906 12.8625 5.25532 12.8 5.19335V5.20001Z" fill="black"/>
</svg>
