<svg width="16" height="16" viewBox="0 0 16 16" fill="none" xmlns="http://www.w3.org/2000/svg">
<g clip-path="url(#clip0_2018_2728)">
<path fill-rule="evenodd" clip-rule="evenodd" d="M15.3332 4.9334C15.3332 5.1334 15.3332 5.20007 15.3332 5.20007V8.40006C15.3332 9.06673 14.8665 9.66673 14.1998 9.86673L6.19984 11.5334C5.39984 11.6667 4.59984 11.2001 4.4665 10.4001L2.79984 2.20006H1.39984C0.999837 2.20006 0.666504 1.86673 0.666504 1.46673C0.666504 1.06673 0.999837 0.733398 1.39984 0.733398H3.39984C3.73317 0.733398 4.0665 1.00007 4.13317 1.3334L4.59984 3.66673L4.93317 5.1334L5.79984 9.26673C5.8665 9.66673 6.2665 9.9334 6.6665 9.86673L13.3332 8.46673C13.6665 8.40006 13.9332 8.06673 13.9332 7.7334V5.86673C13.9332 5.86673 13.9332 5.1334 13.9332 4.9334C13.9332 4.5334 14.1998 4.20006 14.6665 4.20006C15.0665 4.20006 15.3332 4.60006 15.3332 4.9334Z" fill="#333333"/>
<path d="M5.33333 15.4001C6.06667 15.4001 6.66667 14.8001 6.66667 14.0667C6.66667 13.3334 6.06667 12.7334 5.33333 12.7334C4.6 12.7334 4 13.3334 4 14.0667C4 14.8001 4.6 15.4001 5.33333 15.4001Z" fill="#333333"/>
<path d="M11.9998 15.4001C12.7332 15.4001 13.3332 14.8001 13.3332 14.0667C13.3332 13.3334 12.7332 12.7334 11.9998 12.7334C11.2665 12.7334 10.6665 13.3334 10.6665 14.0667C10.6665 14.8001 11.2665 15.4001 11.9998 15.4001Z" fill="#333333"/>
<path fill-rule="evenodd" clip-rule="evenodd" d="M14.0464 0.799546C14.1018 0.847004 14.1472 0.90491 14.1802 0.969952C14.2132 1.035 14.233 1.1059 14.2386 1.17862C14.2442 1.25133 14.2354 1.32443 14.2127 1.39374C14.19 1.46304 14.1538 1.5272 14.1063 1.58253L9.66597 6.76295C9.61619 6.82103 9.55494 6.86819 9.48606 6.90148C9.41718 6.93476 9.34217 6.95345 9.26573 6.95637C9.18929 6.95929 9.11307 6.94637 9.04186 6.91844C8.97064 6.8905 8.90597 6.84815 8.85191 6.79403L6.63173 4.57385L6.24023 4.18162L7.0247 3.39716L7.41693 3.78939L9.2138 5.58551L13.2641 0.860231C13.36 0.748619 13.4962 0.679612 13.6429 0.668372C13.7895 0.657132 13.9347 0.704578 14.0464 0.800286V0.799546Z" fill="#16C67A"/>
</g>
<defs>
<clipPath id="clip0_2018_2728">
<rect width="16" height="16" fill="white"/>
</clipPath>
</defs>
</svg>
