<svg width="16" height="16" viewBox="0 0 16 16" fill="none" xmlns="http://www.w3.org/2000/svg">
<g clip-path="url(#clip0_2014_2434)">
<path fill-rule="evenodd" clip-rule="evenodd" d="M0.666748 1.40009C0.666748 0.995081 0.995081 0.666748 1.40009 0.666748H3.37075C3.718 0.666748 4.01765 0.910292 4.08862 1.25021L4.57924 3.60013H13.867C14.677 3.60013 15.3336 4.25679 15.3336 5.06682V8.23854C15.3336 8.93287 14.8469 9.53201 14.1672 9.6742L6.19814 11.341C5.40521 11.5068 4.62799 10.9984 4.46222 10.2054L2.7747 2.13344H1.40009C0.995081 2.13344 0.666748 1.8051 0.666748 1.40009ZM5.74585 9.18778C5.82865 9.5843 6.21728 9.83862 6.61381 9.75575L13.2837 8.36115C13.6235 8.29009 13.867 7.99045 13.867 7.64328V5.80016C13.867 5.39515 13.5386 5.06682 13.1336 5.06682H4.88546L5.74585 9.18778Z" fill="#333333"/>
<path d="M5.33335 15.3335C6.06974 15.3335 6.66671 14.7365 6.66671 14.0001C6.66671 13.2637 6.06974 12.6667 5.33335 12.6667C4.59696 12.6667 4 13.2637 4 14.0001C4 14.7365 4.59696 15.3335 5.33335 15.3335Z" fill="#333333"/>
<path d="M12.0001 15.3335C12.7365 15.3335 13.3335 14.7365 13.3335 14.0001C13.3335 13.2637 12.7365 12.6667 12.0001 12.6667C11.2637 12.6667 10.6667 13.2637 10.6667 14.0001C10.6667 14.7365 11.2637 15.3335 12.0001 15.3335Z" fill="#333333"/>
</g>
<defs>
<clipPath id="clip0_2014_2434">
<rect width="16" height="16" fill="white"/>
</clipPath>
</defs>
</svg>
