<svg width="16" height="16" viewBox="0 0 16 16" fill="none" xmlns="http://www.w3.org/2000/svg">
<path d="M9.872 13.8H4.688C3.92 13.8 3.472 13.8 3.024 13.608C2.64 13.416 2.384 13.16 2.192 12.776C2 12.328 2 11.88 2 11.112V5.928C2 5.16 2 4.712 2.192 4.264C2.384 3.88 2.64 3.624 3.024 3.432C3.472 3.24 3.92 3.24 4.688 3.24H9.872C10.64 3.24 11.088 3.24 11.536 3.432C11.92 3.624 12.176 3.88 12.368 4.264C12.56 4.648 12.56 5.096 12.56 5.928V11.112C12.56 11.88 12.56 12.328 12.368 12.776C12.176 13.16 11.92 13.416 11.536 13.608C11.088 13.8 10.64 13.8 9.872 13.8ZM4.688 4.52C4.112 4.52 3.792 4.52 3.6 4.584L3.344 4.84C3.28 5.032 3.28 5.352 3.28 5.928V11.112C3.28 11.688 3.28 12.008 3.344 12.2C3.408 12.328 3.472 12.392 3.6 12.456C3.792 12.52 4.112 12.52 4.688 12.52H9.872C10.448 12.52 10.768 12.52 10.96 12.456C11.088 12.392 11.152 12.328 11.216 12.2C11.28 12.072 11.28 11.688 11.28 11.112V5.928C11.28 5.352 11.28 5.032 11.216 4.84C11.152 4.712 11.088 4.648 10.96 4.584C10.832 4.52 10.448 4.52 9.872 4.52H4.688ZM14.16 10.92C13.776 10.92 13.52 10.664 13.52 10.28V5.736C13.52 4.392 13.52 3.752 13.328 3.304C13.136 2.92 12.88 2.664 12.496 2.472C12.048 2.28 11.408 2.28 10.064 2.28H5.52C5.136 2.28 4.88 2.024 4.88 1.64C4.88 1.256 5.136 1 5.52 1H10.064C11.6 1 12.368 1 13.072 1.32C13.648 1.64 14.16 2.152 14.48 2.728C14.8 3.432 14.8 4.2 14.8 5.736V10.28C14.8 10.664 14.544 10.92 14.16 10.92Z" fill="#767676"/>
</svg>
