<svg width="28" height="22" viewBox="0 0 28 22" fill="none" xmlns="http://www.w3.org/2000/svg">
<rect width="24.5053" height="17.9865" rx="7.21387" transform="matrix(0.989003 -0.147895 -0.147895 -0.989003 3.28809 21.9841)" fill="#333333"/>
<rect width="24.5053" height="17.9865" rx="7.21387" transform="matrix(0.989003 -0.147895 -0.147895 -0.989003 3.28809 21.9841)" fill="#C61D00"/>
<rect x="1" y="0.521912" width="26" height="18.9562" rx="7.42857" fill="url(#paint0_linear_0_208)"/>
<path fill-rule="evenodd" clip-rule="evenodd" d="M19.0401 4.96008C19.1809 5.101 19.2601 5.2921 19.2601 5.49135C19.2601 5.69061 19.1809 5.88171 19.0401 6.02263L10.0227 15.04C9.881 15.1769 9.69118 15.2526 9.49416 15.2509C9.29713 15.2492 9.10866 15.1701 8.96934 15.0308C8.83001 14.8915 8.75098 14.703 8.74927 14.506C8.74756 14.309 8.8233 14.1191 8.96018 13.9774L17.9775 4.96008C18.1184 4.81921 18.3095 4.74007 18.5088 4.74007C18.7081 4.74007 18.8992 4.81921 19.0401 4.96008ZM10.6186 5.49135C10.3197 5.49135 10.033 5.61011 9.82159 5.82149C9.61021 6.03288 9.49145 6.31958 9.49145 6.61852C9.49145 6.91747 9.61021 7.20417 9.82159 7.41555C10.033 7.62694 10.3197 7.74569 10.6186 7.74569C10.9176 7.74569 11.2043 7.62694 11.4156 7.41555C11.627 7.20417 11.7458 6.91747 11.7458 6.61852C11.7458 6.31958 11.627 6.03288 11.4156 5.82149C11.2043 5.61011 10.9176 5.49135 10.6186 5.49135ZM7.98856 6.61852C7.98856 5.92099 8.26566 5.25202 8.75889 4.75879C9.25212 4.26556 9.92109 3.98846 10.6186 3.98846C11.3162 3.98846 11.9851 4.26556 12.4784 4.75879C12.9716 5.25202 13.2487 5.92099 13.2487 6.61852C13.2487 7.31606 12.9716 7.98502 12.4784 8.47825C11.9851 8.97149 11.3162 9.24858 10.6186 9.24858C9.92109 9.24858 9.25212 8.97149 8.75889 8.47825C8.26566 7.98502 7.98856 7.31606 7.98856 6.61852ZM17.3816 12.2544C17.0827 12.2544 16.796 12.3731 16.5846 12.5845C16.3732 12.7959 16.2545 13.0826 16.2545 13.3815C16.2545 13.6805 16.3732 13.9672 16.5846 14.1786C16.796 14.3899 17.0827 14.5087 17.3816 14.5087C17.6806 14.5087 17.9673 14.3899 18.1787 14.1786C18.39 13.9672 18.5088 13.6805 18.5088 13.3815C18.5088 13.0826 18.39 12.7959 18.1787 12.5845C17.9673 12.3731 17.6806 12.2544 17.3816 12.2544ZM14.7516 13.3815C14.7516 13.0361 14.8196 12.6941 14.9518 12.375C15.0839 12.056 15.2777 11.766 15.5219 11.5218C15.7661 11.2776 16.0561 11.0838 16.3751 10.9517C16.6942 10.8195 17.0362 10.7515 17.3816 10.7515C17.727 10.7515 18.069 10.8195 18.3881 10.9517C18.7072 11.0838 18.9971 11.2776 19.2414 11.5218C19.4856 11.766 19.6793 12.056 19.8115 12.375C19.9437 12.6941 20.0117 13.0361 20.0117 13.3815C20.0117 14.0791 19.7346 14.748 19.2414 15.2413C18.7481 15.7345 18.0792 16.0116 17.3816 16.0116C16.6841 16.0116 16.0151 15.7345 15.5219 15.2413C15.0287 14.748 14.7516 14.0791 14.7516 13.3815Z" fill="white"/>
<defs>
<linearGradient id="paint0_linear_0_208" x1="-2.13793" y1="27.4397" x2="13.9596" y2="34.5822" gradientUnits="userSpaceOnUse">
<stop stop-color="#FF5336"/>
<stop offset="1" stop-color="#FF833D"/>
</linearGradient>
</defs>
</svg>
