<svg width="80" height="70" viewBox="0 0 80 70" fill="none" xmlns="http://www.w3.org/2000/svg">
<g clip-path="url(#clip0_14250_61659)">
<path d="M22.9499 31.0205H6.4921C5.79903 31.0205 5.1127 31.156 4.4723 31.4201C3.83204 31.6838 3.2499 32.0708 2.75903 32.5591C2.26906 33.0467 1.88011 33.6263 1.61448 34.2645C1.34929 34.9021 1.21281 35.5858 1.21289 36.2763V54.6981C1.21201 55.3896 1.34799 56.0744 1.61302 56.7131C1.87804 57.3517 2.26686 57.9316 2.75705 58.4193C3.74866 59.4077 5.09207 59.9619 6.4921 59.9603H9.84497C10.0169 59.9603 10.1816 60.0284 10.3028 60.1492C10.424 60.27 10.4925 60.434 10.4925 60.6051V67.4641C10.4965 67.5884 10.5364 67.7089 10.6076 67.8109C10.6787 67.9129 10.778 67.9921 10.8933 68.0387C11.0086 68.0856 11.1349 68.0985 11.2574 68.0758C11.3798 68.0532 11.4931 67.9959 11.584 67.9108L19.3816 60.1453C19.5029 60.0255 19.6666 59.9583 19.8371 59.9583H29.3602C30.6941 59.9583 31.9788 59.4544 32.9571 58.5476C33.933 57.6429 34.5289 56.4013 34.6244 55.074" stroke="#BABAC0" stroke-width="2" stroke-linecap="round" stroke-linejoin="round"/>
<path d="M62.0312 6.98047H70.5258C71.6106 6.98047 72.685 7.19354 73.6874 7.607C74.6893 8.02021 75.6002 8.62644 76.3682 9.39116C77.1348 10.1547 77.7433 11.0619 78.1587 12.0609C78.5737 13.0589 78.7872 14.1293 78.7868 15.2102V42.5151C78.7869 43.5958 78.5731 44.6659 78.1579 45.6636C77.7424 46.6625 77.134 47.5696 76.3674 48.3329C75.5995 49.0974 74.6888 49.7033 73.687 50.1163C72.6844 50.5299 71.6104 50.7428 70.5258 50.7428H66.4134C66.1468 50.7428 65.891 50.8482 65.7025 51.0359C65.6091 51.1287 65.5351 51.2391 65.4845 51.3606C65.4339 51.4821 65.4079 51.6124 65.4078 51.744V62.4878C65.4097 62.6882 65.3514 62.8845 65.2403 63.0512C65.1292 63.218 64.9705 63.3475 64.7848 63.4228C64.5992 63.499 64.395 63.5179 64.1985 63.4773C64.002 63.4367 63.8221 63.3383 63.6819 63.1947L51.4767 51.0415C51.3833 50.9478 51.2723 50.8736 51.1501 50.823C51.0279 50.7724 50.8969 50.7465 50.7646 50.7468H35.5686C33.3794 50.7477 31.279 49.8813 29.727 48.3373C28.9606 47.5745 28.3523 46.6679 27.9371 45.6695C27.5219 44.671 27.308 43.6004 27.3076 42.5191V15.2102C27.3076 14.1298 27.5207 13.0597 27.9357 12.0613C28.3513 11.0621 28.9598 10.1547 29.7266 9.39116C30.4945 8.62644 31.4052 8.02021 32.407 7.607C33.4099 7.1933 34.4842 6.98043 35.569 6.98047H45.3385" stroke="#BABAC0" stroke-width="2" stroke-linecap="round" stroke-linejoin="round"/>
<path d="M51.8486 24.9843C56.5111 22.6207 55.0264 17.9253 54.5262 16.9712C53.8074 15.5942 54.4676 14.393 54.8711 13.6643C55.3028 12.8865 56.1551 11.3007 56.5325 10.5142C58.6557 6.11342 56.6402 1.09203 53.3931 1.21005C51.2097 1.28728 50.5884 3.10114 50.3919 4.54906C50.0383 7.09124 48.9745 9.93837 47.2117 11.8552C45.2583 13.9396 43.54 16.2324 42.0878 18.6924C41.3305 19.9518 39.4402 20.5578 37.6648 20.8073C37.3101 20.8493 36.9828 21.0189 36.744 21.2845C36.5059 21.5496 36.3729 21.8926 36.3701 22.2489V36.2394C36.3682 36.5835 36.4897 36.9166 36.7131 37.1792C36.9368 37.4416 37.2467 37.6158 37.5872 37.6702C40.1027 38.0721 42.5554 38.7989 44.8838 39.8322C47.5076 41.0271 51.609 41.5966 55.2529 41.5966C59.4193 41.5966 65.8965 41.0956 66.4185 35.5649C67.9634 34.3506 69.0355 31.9701 68.3602 30.0188C69.5535 28.4457 70.2501 25.8762 68.8652 24.2168C72.3733 18.2005 63.7278 15.753 59.1432 15.2306" stroke="#BABAC0" stroke-width="2" stroke-linecap="round" stroke-linejoin="round"/>
<path d="M24.329 47.384L24.0074 47.6977C23.8687 47.8319 23.7647 47.9979 23.7046 48.1813C23.6444 48.3647 23.6298 48.56 23.6621 48.7504L24.3567 52.7729C24.406 53.0557 24.3747 53.3466 24.2663 53.6124C24.158 53.8782 23.977 54.1082 23.7441 54.2759C23.5109 54.4446 23.2353 54.5448 22.9482 54.5652C22.6612 54.5855 22.3741 54.5253 22.1195 54.3911L18.4926 52.4917C18.321 52.4014 18.13 52.3543 17.9361 52.3543C17.7423 52.3543 17.5513 52.4014 17.3797 52.4917L13.7524 54.3911C13.4977 54.5241 13.2111 54.5836 12.9245 54.563C12.638 54.5423 12.3628 54.4424 12.1298 54.2743C11.8973 54.1061 11.7167 53.8762 11.6082 53.6106C11.5 53.3454 11.4684 53.0552 11.5171 52.7729L12.2102 48.7504C12.2431 48.56 12.2288 48.3645 12.1685 48.1809C12.1083 47.9974 12.0038 47.8314 11.8645 47.6977L8.93021 44.8482C8.77634 44.6983 8.65569 44.5179 8.57605 44.3184C8.49642 44.119 8.4596 43.905 8.46796 43.6904C8.47632 43.4758 8.52969 43.2654 8.62461 43.0727C8.71952 42.8801 8.85386 42.7095 9.01892 42.5721C9.24019 42.3879 9.50845 42.269 9.79357 42.2288L13.8494 41.6422C14.0403 41.6155 14.2218 41.5429 14.3785 41.4307C14.5352 41.3185 14.6624 41.17 14.7492 40.9979L16.5639 37.3448C16.6911 37.0875 16.8878 36.871 17.1318 36.7199C17.3145 36.6068 17.5187 36.5332 17.7315 36.5035C17.9443 36.4739 18.1609 36.489 18.3675 36.5478C18.5741 36.6066 18.7662 36.7079 18.9315 36.8451C19.0968 36.9823 19.2316 37.1525 19.3274 37.3448L21.1401 40.9979C21.2269 41.17 21.3541 41.3185 21.5108 41.4307C21.6675 41.5429 21.849 41.6155 22.0399 41.6422L23.015 41.784" stroke="#FBC100" stroke-width="2" stroke-linecap="round" stroke-linejoin="round"/>
</g>
<defs>
<clipPath id="clip0_14250_61659">
<rect width="80" height="69.3069" fill="white"/>
</clipPath>
</defs>
</svg>
