<svg width="14" height="14" viewBox="0 0 14 14" fill="none" xmlns="http://www.w3.org/2000/svg">
<g clip-path="url(#clip0_2014_4642)">
<path d="M7 0C5.14348 0 3.36301 0.737498 2.05025 2.05025C0.737498 3.36301 0 5.14348 0 7C0 8.85652 0.737498 10.637 2.05025 11.9497C3.36301 13.2625 5.14348 14 7 14C8.85652 14 10.637 13.2625 11.9497 11.9497C13.2625 10.637 14 8.85652 14 7C14 5.14348 13.2625 3.36301 11.9497 2.05025C10.637 0.737498 8.85652 0 7 0ZM6.96536 2.8C7.50412 2.8 7.95389 2.87483 8.31432 3.02422C8.67476 3.1736 8.96562 3.35987 9.18568 3.58203C9.40573 3.80419 9.56296 4.04362 9.65781 4.30026C9.75266 4.5569 9.8 4.79633 9.8 5.01849C9.8 5.38621 9.75266 5.68882 9.65781 5.9263C9.56296 6.16379 9.44455 6.36662 9.30417 6.53516C9.16379 6.70369 9.00823 6.84662 8.8375 6.96536C8.66677 7.08411 8.50619 7.20391 8.35443 7.32266C8.20266 7.4414 8.06736 7.57595 7.94974 7.72917C7.83212 7.88238 7.75952 8.07356 7.72917 8.30339V8.74089H6.19245V8.22318C6.21521 7.89376 6.27777 7.61774 6.38021 7.39557C6.48265 7.17341 6.60091 6.98387 6.7375 6.82682C6.87409 6.66978 7.01959 6.53522 7.17135 6.42031C7.32312 6.3054 7.46345 6.19069 7.59245 6.07578C7.72145 5.96087 7.82449 5.83451 7.90417 5.69661C7.98384 5.55872 8.02113 5.38575 8.01354 5.17891C8.01354 4.82651 7.92724 4.56541 7.75651 4.39687C7.58578 4.22834 7.3491 4.14531 7.04557 4.14531C6.84069 4.14531 6.6649 4.18519 6.51693 4.26562C6.36896 4.34606 6.2472 4.45239 6.15234 4.58646C6.05749 4.72052 5.98641 4.87857 5.94089 5.05859C5.89536 5.23862 5.87344 5.43144 5.87344 5.63828H4.2C4.20759 5.2246 4.27867 4.84552 4.41146 4.50078C4.54425 4.15605 4.72842 3.85671 4.96745 3.60391C5.20647 3.3511 5.49566 3.15501 5.83333 3.01328C6.171 2.87156 6.54802 2.8 6.96536 2.8ZM6.91797 9.42995H6.93437C7.42305 9.42995 7.82031 9.82722 7.82031 10.3159C7.82031 10.8046 7.42305 11.2 6.93437 11.2H6.91797C6.4293 11.2 6.03203 10.8046 6.03203 10.3159C6.03203 9.82722 6.4293 9.42995 6.91797 9.42995Z" fill="#BABAC0"/>
</g>
<defs>
<clipPath id="clip0_2014_4642">
<rect width="14" height="14" fill="white"/>
</clipPath>
</defs>
</svg>
