<svg width="20" height="20" viewBox="0 0 20 20" fill="none" xmlns="http://www.w3.org/2000/svg">
<path d="M9.99983 13.6002L6.54152 15.6836C6.38874 15.7808 6.22901 15.8225 6.06234 15.8086C5.89568 15.7947 5.74985 15.7392 5.62485 15.6419C5.49984 15.5447 5.40263 15.4232 5.33319 15.2773C5.26374 15.1315 5.24985 14.9683 5.29152 14.7877L6.20818 10.8502L3.14569 8.20441C3.00679 8.07941 2.91999 7.93708 2.88527 7.77733C2.85054 7.61766 2.86096 7.46141 2.91652 7.30859C2.97207 7.15582 3.0554 7.03082 3.16652 6.93359C3.27763 6.83638 3.4304 6.77388 3.62485 6.74609L7.66652 6.39193L9.229 2.68359C9.29842 2.51693 9.40608 2.39193 9.55192 2.30859C9.69775 2.22526 9.84708 2.18359 9.99983 2.18359C10.1526 2.18359 10.3019 2.22526 10.4478 2.30859C10.5936 2.39193 10.7013 2.51693 10.7707 2.68359L12.3332 6.39193L16.3748 6.74609C16.5693 6.77388 16.7221 6.83638 16.8332 6.93359C16.9443 7.03082 17.0276 7.15582 17.0832 7.30859C17.1388 7.46141 17.1492 7.61766 17.1144 7.77733C17.0797 7.93708 16.9929 8.07941 16.854 8.20441L13.7915 10.8502L14.7082 14.7877C14.7498 14.9683 14.7359 15.1315 14.6665 15.2773C14.5971 15.4232 14.4998 15.5447 14.3748 15.6419C14.2498 15.7392 14.104 15.7947 13.9373 15.8086C13.7707 15.8225 13.6109 15.7808 13.4582 15.6836L9.99983 13.6002Z" fill="#BABAC0"/>
</svg>
