<svg width="20" height="20" viewBox="0 0 20 20" fill="none" xmlns="http://www.w3.org/2000/svg">
<path fill-rule="evenodd" clip-rule="evenodd" d="M5.83333 8.98699V8.95616L5.80166 8.95866L5.83333 8.98699ZM10.0517 5.87533L10.0583 5.89199L10.0483 5.88199L10.0517 5.87533ZM6.59333 16.417L10.0517 14.3337L13.51 16.417C13.651 16.5117 13.8199 16.5558 13.9892 16.542C14.148 16.5306 14.2999 16.4727 14.4258 16.3753C14.5508 16.2781 14.648 16.1567 14.7175 16.0112C14.7875 15.8656 14.8014 15.7023 14.7592 15.5212L13.8425 11.5837L16.905 8.93783C17.0312 8.8306 17.1211 8.68683 17.1621 8.52637C17.2032 8.36591 17.1934 8.19666 17.1342 8.04199C17.0833 7.89813 16.9974 7.76924 16.8842 7.66699C16.773 7.56977 16.6203 7.50727 16.4258 7.47949L12.3842 7.12533L10.8217 3.41699C10.7597 3.25912 10.646 3.12693 10.4992 3.04199C10.3637 2.96151 10.2093 2.91838 10.0517 2.91699C9.89833 2.91699 9.74888 2.95866 9.60333 3.04199C9.45652 3.12693 9.34283 3.25912 9.28083 3.41699L7.71833 7.12533L3.67666 7.47949C3.48222 7.50727 3.32944 7.56977 3.21833 7.66699C3.10508 7.76924 3.01915 7.89813 2.96833 8.04199C2.90884 8.19663 2.89894 8.36595 2.94001 8.52647C2.98107 8.68698 3.07106 8.83075 3.19749 8.93783L6.25999 11.5837L5.34333 15.5212C5.29991 15.6841 5.31464 15.8571 5.38499 16.0103C5.45444 16.1564 5.55166 16.2781 5.67666 16.3753C5.80166 16.4725 5.94749 16.5281 6.11416 16.542C6.28083 16.5559 6.44055 16.5142 6.59333 16.417Z" fill="#FBC100"/>
</svg>
