<svg width="20" height="20" viewBox="0 0 20 20" fill="none" xmlns="http://www.w3.org/2000/svg">
<path fill-rule="evenodd" clip-rule="evenodd" d="M3.30931 9.05846C3.30931 5.88902 5.88904 3.30929 9.05848 3.30929C12.2279 3.30929 14.8076 5.88902 14.8076 9.05846C14.8076 12.2279 12.2279 14.8076 9.05848 14.8076C5.88904 14.8076 3.30931 12.2279 3.30931 9.05846ZM18.0929 18.0929C18.2469 17.9388 18.3334 17.73 18.3334 17.5122C18.3334 17.2944 18.2469 17.0856 18.0929 16.9315L14.8282 13.6668C15.8786 12.3606 16.4509 10.7346 16.4503 9.05846C16.4503 4.98229 13.1346 1.66667 9.05848 1.66667C4.98232 1.66667 1.66669 4.98229 1.66669 9.05846C1.66669 13.1346 4.98232 16.4502 9.05848 16.4502C10.7346 16.4509 12.3607 15.8786 13.6668 14.8282L16.9316 18.0929C17.0856 18.2468 17.2944 18.3333 17.5122 18.3333C17.73 18.3333 17.9389 18.2468 18.0929 18.0929Z" fill="#333333" fill-opacity="0.5"/>
</svg>
