<svg width="24" height="24" viewBox="0 0 24 24" fill="none" xmlns="http://www.w3.org/2000/svg">
<path fill-rule="evenodd" clip-rule="evenodd" d="M3.66699 13.7777C3.66699 12.3616 4.81498 11.2136 6.23109 11.2136H7.72682C8.19886 11.2136 8.58152 11.5963 8.58152 12.0683C8.58152 12.5404 8.19886 12.923 7.72682 12.923H6.23109C5.75906 12.923 5.37639 13.3057 5.37639 13.7777V17.7692C5.37639 18.2412 5.75906 18.6239 6.23109 18.6239H17.7696C18.2416 18.6239 18.6243 18.2412 18.6243 17.7692V13.7777C18.6243 13.3057 18.2416 12.923 17.7696 12.923H16.2738C15.8018 12.923 15.4191 12.5404 15.4191 12.0683C15.4191 11.5963 15.8018 11.2136 16.2738 11.2136H17.7696C19.1857 11.2136 20.3337 12.3616 20.3337 13.7777V17.7692C20.3337 19.1853 19.1857 20.3333 17.7696 20.3333H6.23109C4.81498 20.3333 3.66699 19.1853 3.66699 17.7692V13.7777Z" fill="#333333"/>
<path fill-rule="evenodd" clip-rule="evenodd" d="M12.0006 2.66669C12.4726 2.66669 12.8553 3.04935 12.8553 3.52139V14.2051C12.8553 14.6772 12.4726 15.0598 12.0006 15.0598C11.5285 15.0598 11.1459 14.6772 11.1459 14.2051V3.52139C11.1459 3.04935 11.5285 2.66669 12.0006 2.66669Z" fill="#333333"/>
<path fill-rule="evenodd" clip-rule="evenodd" d="M11.3963 2.91696C11.7301 2.58318 12.2712 2.58318 12.605 2.91696L16.8785 7.19047C17.2123 7.52425 17.2123 8.06541 16.8785 8.3992C16.5447 8.73298 16.0036 8.73298 15.6698 8.3992L12.0006 4.73006L8.3315 8.3992C7.99772 8.73298 7.45655 8.73298 7.12277 8.3992C6.78899 8.06541 6.78899 7.52425 7.12277 7.19047L11.3963 2.91696Z" fill="#333333"/>
</svg>
