<svg width="24" height="24" viewBox="0 0 24 24" fill="none" xmlns="http://www.w3.org/2000/svg">
<path fill-rule="evenodd" clip-rule="evenodd" d="M3.86331 10.4241C3.86331 10.2524 3.93152 10.0877 4.05295 9.96625C4.17438 9.84483 4.33907 9.77661 4.51079 9.77661C4.68251 9.77661 4.8472 9.84483 4.96863 9.96625C5.09006 10.0877 5.15827 10.2524 5.15827 10.4241V17.7622C5.15827 18.2774 5.36292 18.7715 5.7272 19.1357C6.09148 19.5 6.58555 19.7047 7.10072 19.7047H17.4604C17.9756 19.7047 18.4697 19.5 18.8339 19.1357C19.1982 18.7715 19.4029 18.2774 19.4029 17.7622V10.4241C19.4029 10.2524 19.4711 10.0877 19.5925 9.96625C19.7139 9.84483 19.8786 9.77661 20.0504 9.77661C20.2221 9.77661 20.3868 9.84483 20.5082 9.96625C20.6296 10.0877 20.6978 10.2524 20.6978 10.4241V17.7622C20.6978 18.6208 20.3568 19.4443 19.7496 20.0514C19.1425 20.6586 18.319 20.9996 17.4604 20.9996H7.10072C6.2421 20.9996 5.41866 20.6586 4.81152 20.0514C4.20439 19.4443 3.86331 18.6208 3.86331 17.7622V10.4241Z" fill="black"/>
<path fill-rule="evenodd" clip-rule="evenodd" d="M12.2803 13.2302C13.1387 13.2307 13.9619 13.5719 14.569 14.1789C15.176 14.786 15.5172 15.6092 15.5177 16.4676V20.3525C15.5177 20.5242 15.4495 20.6889 15.328 20.8104C15.2066 20.9318 15.0419 21 14.8702 21C14.6985 21 14.5338 20.9318 14.4124 20.8104C14.2909 20.6889 14.2227 20.5242 14.2227 20.3525V16.4676C14.2227 15.9525 14.0181 15.4584 13.6538 15.0941C13.2895 14.7298 12.7954 14.5252 12.2803 14.5252C11.7651 14.5252 11.271 14.7298 10.9068 15.0941C10.5425 15.4584 10.3378 15.9525 10.3378 16.4676V20.3525C10.3378 20.5242 10.2696 20.6889 10.1482 20.8104C10.0268 20.9318 9.86207 21 9.69034 21C9.51862 21 9.35393 20.9318 9.2325 20.8104C9.11108 20.6889 9.04286 20.5242 9.04286 20.3525V16.4676C9.04332 15.6092 9.38455 14.786 9.99158 14.1789C10.5986 13.5719 11.4218 13.2307 12.2803 13.2302ZM9.642 3.64748V8.5036C9.64177 9.37946 9.29367 10.2194 8.67426 10.8386C8.05485 11.4579 7.21484 11.8058 6.33898 11.8058C5.83169 11.8054 5.33114 11.6896 4.87528 11.4671C4.41943 11.2445 4.02023 10.9211 3.70797 10.5213C3.39571 10.1215 3.17859 9.65588 3.07308 9.1597C2.96756 8.66351 2.97642 8.14981 3.09898 7.65755L3.78531 4.91309C3.92184 4.36664 4.23714 3.88152 4.68109 3.53487C5.12503 3.18823 5.67213 2.99996 6.23538 3H8.99452C9.16624 3 9.33093 3.06822 9.45235 3.18964C9.57378 3.31107 9.642 3.47576 9.642 3.64748ZM8.34703 4.29496H6.23538C5.67077 4.29496 5.17869 4.67914 5.04229 5.22647L4.35595 7.9718C4.28099 8.27308 4.2756 8.58748 4.3402 8.89115C4.4048 9.19483 4.53769 9.47981 4.7288 9.72449C4.9199 9.96918 5.16421 10.1671 5.44319 10.3034C5.72217 10.4396 6.02851 10.5105 6.33898 10.5108C6.8714 10.5108 7.38202 10.2993 7.75858 9.92295C8.13514 9.54655 8.3468 9.03602 8.34703 8.5036V4.29496ZM15.566 3H18.3252C19.4837 3 20.4938 3.7882 20.7752 4.91309L21.4616 7.65755C21.5841 8.14981 21.593 8.66351 21.4875 9.1597C21.382 9.65588 21.1648 10.1215 20.8526 10.5213C20.5403 10.9211 20.1411 11.2445 19.6853 11.4671C19.2294 11.6896 18.7288 11.8054 18.2216 11.8058C17.3457 11.8058 16.5057 11.4579 15.8863 10.8386C15.2669 10.2194 14.9188 9.37946 14.9185 8.5036V3.64748C14.9185 3.47576 14.9868 3.31107 15.1082 3.18964C15.2296 3.06822 15.3943 3 15.566 3ZM16.2135 4.29496V8.5036C16.2137 9.03602 16.4254 9.54655 16.802 9.92295C17.1785 10.2993 17.6891 10.5108 18.2216 10.5108C18.532 10.5105 18.8384 10.4396 19.1174 10.3034C19.3963 10.1671 19.6406 9.96918 19.8317 9.72449C20.0229 9.47981 20.1557 9.19483 20.2203 8.89115C20.2849 8.58748 20.2796 8.27308 20.2046 7.9718L19.5183 5.22647C19.4518 4.96036 19.2983 4.72412 19.0821 4.55532C18.8659 4.38653 18.5994 4.29488 18.3252 4.29496H16.2135Z" fill="black"/>
<path fill-rule="evenodd" clip-rule="evenodd" d="M8.98752 3H15.5659C15.651 3 15.7353 3.01678 15.8139 3.04937C15.8925 3.08196 15.964 3.12973 16.0241 3.18995C16.0842 3.25016 16.1319 3.32164 16.1644 3.4003C16.1969 3.47896 16.2135 3.56324 16.2134 3.64835L16.2091 8.34475C16.2084 9.2629 15.8432 10.1432 15.1937 10.7922C14.5443 11.4412 13.6637 11.8058 12.7455 11.8058H11.8045C10.8858 11.8058 10.0048 11.4409 9.35506 10.7913C8.70538 10.1418 8.34027 9.26084 8.34004 8.34216V3.64748C8.34004 3.47576 8.40826 3.31107 8.52969 3.18964C8.65111 3.06822 8.8158 3 8.98752 3ZM9.63501 4.29496V8.34216C9.63524 8.9174 9.86391 9.46899 10.2707 9.87567C10.6776 10.2823 11.2293 10.5108 11.8045 10.5108H12.7455C13.0302 10.5109 13.3121 10.4549 13.5751 10.3461C13.8382 10.2373 14.0772 10.0777 14.2786 9.87648C14.48 9.67526 14.6398 9.43635 14.7488 9.17339C14.8578 8.91043 14.914 8.62856 14.9141 8.34389L14.9185 4.29496H9.63501Z" fill="black"/>
</svg>
