<svg width="29" height="28" viewBox="0 0 29 28" fill="none" xmlns="http://www.w3.org/2000/svg">
<path d="M24.9203 5.92991C24.9226 5.8164 24.8812 5.70633 24.8046 5.62247C24.7281 5.5386 24.6223 5.48734 24.509 5.47929C22.8371 5.38097 21.1893 5.03295 19.6204 4.44679C17.9537 3.82474 16.3954 2.94421 15.0026 1.83754C14.9139 1.78047 14.8106 1.75012 14.7051 1.75012C14.5996 1.75012 14.4963 1.78047 14.4076 1.83754C13.0148 2.94387 11.4566 3.82409 9.7902 4.44591C8.22131 5.03207 6.57351 5.38009 4.90158 5.47841C4.83119 5.4827 4.76291 5.50412 4.70268 5.54079C4.64245 5.57746 4.59208 5.62829 4.55595 5.68885C4.08827 15.2036 4.54327 22.5737 14.7055 26.25C24.8984 22.5256 25.174 15.4622 24.9203 5.92991Z" fill="url(#paint0_linear_2001_5639)"/>
<path d="M19.7676 11.2323C19.4582 10.9225 18.9558 10.9227 18.646 11.2323L13.5979 16.2806L11.3542 14.037C11.0444 13.7271 10.5422 13.7271 10.2324 14.037C9.92255 14.3468 9.92255 14.849 10.2324 15.1588L13.0368 17.9633C13.1916 18.1181 13.3946 18.1957 13.5977 18.1957C13.8007 18.1957 14.0039 18.1183 14.1587 17.9633L19.7676 12.3541C20.0775 12.0445 20.0775 11.5421 19.7676 11.2323Z" fill="white"/>
<defs>
<linearGradient id="paint0_linear_2001_5639" x1="0.499909" y1="-4.49988" x2="22.4999" y2="26.0001" gradientUnits="userSpaceOnUse">
<stop stop-color="#5C636B" stop-opacity="0.8"/>
<stop offset="1" stop-color="#B4C1D1"/>
</linearGradient>
</defs>
</svg>
